<svg width="26" height="26" viewBox="0 0 26 26" fill="none" xmlns="http://www.w3.org/2000/svg">
  <g clip-path="url(#clip0_52_618)">
      <path d="M26.0001 13.2883C26.0158 12.3946 25.9216 11.5023 25.7197 10.6306H13.2654V15.455H20.576C20.4375 16.3009 20.1258 17.1106 19.6598 17.8354C19.1937 18.5602 18.5829 19.1852 17.864 19.6727L17.8385 19.8343L21.7766 22.8239L22.0493 22.8506C24.5548 20.5828 25.9996 17.246 25.9996 13.2883" fill="#4285F4"></path>
      <path d="M13.2654 26C16.8469 26 19.8537 24.8444 22.05 22.851L17.864 19.6731C16.7439 20.4389 15.2405 20.9733 13.2654 20.9733C11.5879 20.9637 9.95612 20.4367 8.60153 19.467C7.24694 18.4973 6.23833 17.1342 5.71881 15.571L5.56335 15.584L1.46856 18.6895L1.41504 18.8354C2.51787 20.9894 4.21034 22.8002 6.3032 24.0655C8.39607 25.3307 10.8068 26.0006 13.2659 26" fill="#34A853"></path>
      <path d="M5.71893 15.5709C5.42878 14.7434 5.27906 13.8749 5.27574 12.9999C5.28108 12.1263 5.42527 11.2589 5.70313 10.4289L5.69574 10.2565L1.55075 7.10107L1.41516 7.16426C0.484835 8.97441 0.000244141 10.973 0.000244141 12.9998C0.000244141 15.0266 0.484835 17.0251 1.41516 18.8353L5.71893 15.5709Z" fill="#FBBC05"></path>
      <path d="M13.2654 5.02659C15.1662 4.99767 17.0046 5.69141 18.3947 6.96223L22.1385 3.37993C19.7373 1.17238 16.5576 -0.0388756 13.2654 -7.22333e-05C10.8064 -0.000645599 8.39563 0.669128 6.30276 1.93436C4.2099 3.19958 2.51741 5.01039 1.41455 7.16429L5.70405 10.4289C6.22869 8.86604 7.24064 7.50398 8.59723 6.53475C9.95381 5.56552 11.5866 5.03801 13.2654 5.02659Z" fill="#EB4335"></path>
  </g>
  <defs>
      <clipPath id="clip0_52_618"><rect width="26" height="26" fill="white"></rect></clipPath>
  </defs>
</svg>
