<svg xmlns="http://www.w3.org/2000/svg" xmlns:xlink="http://www.w3.org/1999/xlink" height="35px" width="px" version="1.1" id="Layer_1" viewBox="0 0 502.029 502.029" xml:space="preserve">
    <title id="a6n60sp1h7jtfh0j9ux72bx5jw2zlaba">Maktabah Logo</title>
    <path style="fill:#FF7058;" d="M263.553,86.727h-25.078V11.494c0,0,0-1.045,1.045-1.045h24.033c0,0,1.045,0,1.045,1.045v75.233  H263.553z"/>
    <path style="fill:#FFD15C;" d="M405.659,450.351c0,0-39.706,57.469-141.061,51.2c-8.359-1.045-17.763-1.045-26.122,0  c-102.4,5.225-142.106-51.2-142.106-51.2c-86.727-99.265-8.359-202.71-8.359-202.71c26.122-32.392,62.694-94.041,62.694-94.041  c25.078-114.939,100.31-102.4,100.31-102.4s75.233-12.539,100.31,102.4c0,0,36.571,61.649,62.694,94.041  C414.019,247.641,492.386,351.086,405.659,450.351z"/>
    <path style="fill:#3DC9AE;" d="M103.684,52.245c37.616,36.571,98.22,36.571,135.837,0l11.494-11.494H92.19L103.684,52.245z"/>
    <path style="fill:#4CDBC4;" d="M103.684,28.212L92.19,39.706h158.824l-11.494-11.494C201.904-9.404,141.3-9.404,103.684,28.212z"/>
    <path style="fill:#FCCA59;" d="M416.108,419.004c0,0-39.706,57.469-141.061,51.2c-8.359-1.045-17.763-1.045-26.122,0  c-101.355,6.269-141.061-51.2-141.061-51.2c-43.886-50.155-45.976-101.355-36.571-140.016  c-16.718,38.661-31.347,105.535,26.122,171.363c0,0,39.706,57.469,141.061,51.2c8.359-1.045,17.763-1.045,26.122,0  c101.355,6.269,141.061-51.2,141.061-51.2c21.943-25.078,33.437-50.155,37.616-73.143  C437.006,390.792,428.647,404.376,416.108,419.004z"/>
    <g>
        <circle style="fill:#FFFFFF;" cx="374.312" cy="397.061" r="11.494"/>
        <circle style="fill:#FFFFFF;" cx="403.57" cy="377.208" r="11.494"/>
        <circle style="fill:#FFFFFF;" cx="374.312" cy="360.49" r="11.494"/>
    </g>
</svg>
