<svg width="33" height="26" viewBox="0 0 33 26" fill="none" xmlns="http://www.w3.org/2000/svg">
  <g clip-path="url(#clip0_52_610)">
    <path d="M33 3.07696C31.7586 3.60201 30.4458 3.95097 29.1018 4.11311C30.5182 3.2982 31.5771 2.0078 32.0779 0.486414C30.7521 1.24892 29.3016 1.78594 27.789 2.07427C26.8614 1.11321 25.6571 0.445003 24.3326 0.156529C23.0082 -0.131945 21.6248 -0.0273412 20.3625 0.45674C19.1001 0.940822 18.0172 1.78199 17.2544 2.87087C16.4917 3.95975 16.0844 5.24598 16.0855 6.56232C16.0803 7.06462 16.1329 7.56593 16.2423 8.05693C13.5509 7.92898 10.9177 7.25164 8.5147 6.0692C6.11174 4.88677 3.99319 3.22586 2.29755 1.19505C1.42699 2.6382 1.15722 4.34911 1.54328 5.97858C1.92934 7.60805 2.94215 9.03322 4.37496 9.9632C3.30452 9.93515 2.25671 9.65801 1.31983 9.15514V9.22662C1.32159 10.7416 1.86153 12.2097 2.84877 13.3839C3.836 14.558 5.21025 15.3665 6.74019 15.6733C6.1614 15.8212 5.56489 15.8939 4.96635 15.8893C4.53656 15.8967 4.10721 15.8591 3.68573 15.7772C4.12297 17.0792 4.96566 18.2178 6.09778 19.0362C7.2299 19.8546 8.59579 20.3126 10.0074 20.3472C7.61272 22.1632 4.65939 23.1483 1.61937 23.1453C1.07815 23.1488 0.537248 23.1186 0 23.055C3.09348 24.988 6.69823 26.0106 10.3783 25.999C22.8274 25.999 29.6339 15.9991 29.6339 7.33107C29.6339 7.04092 29.6235 6.76117 29.6091 6.48304C30.9435 5.55701 32.0926 4.40277 33 3.07696Z" fill="#03A9F4"></path>
  </g>
  <defs>
    <clipPath id="clip0_52_610"><rect width="33" height="26" fill="white"></rect></clipPath>
  </defs>
</svg>
